<mxfile host="Electron" modified="2023-05-08T12:28:15.616Z" agent="Mozilla/5.0 (X11; Linux x86_64) AppleWebKit/537.36 (KHTML, like Gecko) draw.io/21.1.2 Chrome/106.0.5249.199 Electron/21.4.3 Safari/537.36" etag="sZDs7BCWZNFpJ13Cjmjy" version="21.1.2" type="device">
  <diagram name="Page-1" id="mbIjbdhpMqE-Ixfhczzh">
    <mxGraphModel dx="1537" dy="998" grid="1" gridSize="10" guides="1" tooltips="1" connect="1" arrows="1" fold="1" page="1" pageScale="1" pageWidth="850" pageHeight="1100" math="0" shadow="0">
      <root>
        <mxCell id="0" />
        <mxCell id="1" parent="0" />
        <mxCell id="-Hr7FnxDlD46efR41cjD-1" value="" style="verticalLabelPosition=bottom;verticalAlign=top;html=1;shadow=0;dashed=0;strokeWidth=1;shape=mxgraph.android.phone2;strokeColor=#c0c0c0;" vertex="1" parent="1">
          <mxGeometry x="20" y="50" width="200" height="390" as="geometry" />
        </mxCell>
        <mxCell id="-Hr7FnxDlD46efR41cjD-19" style="edgeStyle=orthogonalEdgeStyle;rounded=0;orthogonalLoop=1;jettySize=auto;html=1;" edge="1" parent="1" source="-Hr7FnxDlD46efR41cjD-2" target="-Hr7FnxDlD46efR41cjD-5">
          <mxGeometry relative="1" as="geometry" />
        </mxCell>
        <mxCell id="-Hr7FnxDlD46efR41cjD-2" value="Press to Talk" style="rounded=1;html=1;shadow=0;dashed=0;whiteSpace=wrap;fontSize=10;fillColor=#666666;align=center;strokeColor=#4D4D4D;fontColor=#ffffff;" vertex="1" parent="1">
          <mxGeometry x="67.25" y="120" width="105.5" height="16.88" as="geometry" />
        </mxCell>
        <mxCell id="-Hr7FnxDlD46efR41cjD-3" value="FoodViaVoice" style="whiteSpace=wrap;html=1;shadow=0;dashed=0;fontSize=10;align=left;fillColor=#1A1A1A;strokeColor=#1A1A1A;fontColor=#FFFFFF;" vertex="1" parent="1">
          <mxGeometry x="30" y="90" width="180" height="16.88" as="geometry" />
        </mxCell>
        <mxCell id="-Hr7FnxDlD46efR41cjD-5" value="" style="verticalLabelPosition=bottom;verticalAlign=top;html=1;shadow=0;dashed=0;strokeWidth=1;shape=mxgraph.android.phone2;strokeColor=#c0c0c0;" vertex="1" parent="1">
          <mxGeometry x="320" y="50" width="200" height="390" as="geometry" />
        </mxCell>
        <mxCell id="-Hr7FnxDlD46efR41cjD-6" value="Press to Talk" style="rounded=1;html=1;shadow=0;dashed=0;whiteSpace=wrap;fontSize=10;fillColor=#666666;align=center;strokeColor=#4D4D4D;fontColor=#ffffff;" vertex="1" parent="1">
          <mxGeometry x="367.25" y="120" width="105.5" height="16.88" as="geometry" />
        </mxCell>
        <mxCell id="-Hr7FnxDlD46efR41cjD-7" value="FoodViaVoice" style="whiteSpace=wrap;html=1;shadow=0;dashed=0;fontSize=10;align=left;fillColor=#1A1A1A;strokeColor=#1A1A1A;fontColor=#FFFFFF;" vertex="1" parent="1">
          <mxGeometry x="330" y="90" width="180" height="16.88" as="geometry" />
        </mxCell>
        <mxCell id="-Hr7FnxDlD46efR41cjD-8" value="Lorem Ipsum ...." style="text;html=1;strokeColor=none;fillColor=none;align=center;verticalAlign=middle;whiteSpace=wrap;rounded=0;" vertex="1" parent="1">
          <mxGeometry x="330" y="140" width="180" height="50" as="geometry" />
        </mxCell>
        <mxCell id="-Hr7FnxDlD46efR41cjD-20" style="edgeStyle=orthogonalEdgeStyle;rounded=0;orthogonalLoop=1;jettySize=auto;html=1;entryX=0.49;entryY=0.031;entryDx=0;entryDy=0;entryPerimeter=0;" edge="1" parent="1" source="-Hr7FnxDlD46efR41cjD-10" target="-Hr7FnxDlD46efR41cjD-16">
          <mxGeometry relative="1" as="geometry" />
        </mxCell>
        <mxCell id="-Hr7FnxDlD46efR41cjD-24" style="edgeStyle=orthogonalEdgeStyle;rounded=0;orthogonalLoop=1;jettySize=auto;html=1;entryX=0.477;entryY=0.035;entryDx=0;entryDy=0;entryPerimeter=0;" edge="1" parent="1" source="-Hr7FnxDlD46efR41cjD-10" target="-Hr7FnxDlD46efR41cjD-21">
          <mxGeometry relative="1" as="geometry">
            <Array as="points">
              <mxPoint x="421" y="350" />
              <mxPoint x="685" y="350" />
            </Array>
          </mxGeometry>
        </mxCell>
        <mxCell id="-Hr7FnxDlD46efR41cjD-10" value="Continue&amp;nbsp;" style="rounded=1;html=1;shadow=0;dashed=0;whiteSpace=wrap;fontSize=10;fillColor=#666666;align=center;strokeColor=#4D4D4D;fontColor=#ffffff;" vertex="1" parent="1">
          <mxGeometry x="368" y="190" width="105.5" height="16.88" as="geometry" />
        </mxCell>
        <mxCell id="-Hr7FnxDlD46efR41cjD-16" value="" style="verticalLabelPosition=bottom;verticalAlign=top;html=1;shadow=0;dashed=0;strokeWidth=1;shape=mxgraph.android.phone2;strokeColor=#c0c0c0;" vertex="1" parent="1">
          <mxGeometry x="360" y="490" width="200" height="390" as="geometry" />
        </mxCell>
        <mxCell id="-Hr7FnxDlD46efR41cjD-55" style="edgeStyle=orthogonalEdgeStyle;rounded=0;orthogonalLoop=1;jettySize=auto;html=1;" edge="1" parent="1" source="-Hr7FnxDlD46efR41cjD-17" target="-Hr7FnxDlD46efR41cjD-1">
          <mxGeometry relative="1" as="geometry">
            <Array as="points">
              <mxPoint x="460" y="760" />
              <mxPoint x="120" y="760" />
            </Array>
          </mxGeometry>
        </mxCell>
        <mxCell id="-Hr7FnxDlD46efR41cjD-17" value="Save Meal" style="rounded=1;html=1;shadow=0;dashed=0;whiteSpace=wrap;fontSize=10;fillColor=#666666;align=center;strokeColor=#4D4D4D;fontColor=#ffffff;" vertex="1" parent="1">
          <mxGeometry x="407.25" y="670" width="105.5" height="16.88" as="geometry" />
        </mxCell>
        <mxCell id="-Hr7FnxDlD46efR41cjD-18" value="FoodViaVoice - Add Meal" style="whiteSpace=wrap;html=1;shadow=0;dashed=0;fontSize=10;align=left;fillColor=#1A1A1A;strokeColor=#1A1A1A;fontColor=#FFFFFF;" vertex="1" parent="1">
          <mxGeometry x="370" y="530" width="180" height="16.88" as="geometry" />
        </mxCell>
        <mxCell id="-Hr7FnxDlD46efR41cjD-21" value="" style="verticalLabelPosition=bottom;verticalAlign=top;html=1;shadow=0;dashed=0;strokeWidth=1;shape=mxgraph.android.phone2;strokeColor=#c0c0c0;" vertex="1" parent="1">
          <mxGeometry x="590" y="490" width="200" height="390" as="geometry" />
        </mxCell>
        <mxCell id="-Hr7FnxDlD46efR41cjD-56" style="edgeStyle=orthogonalEdgeStyle;rounded=0;orthogonalLoop=1;jettySize=auto;html=1;" edge="1" parent="1" source="-Hr7FnxDlD46efR41cjD-22" target="-Hr7FnxDlD46efR41cjD-1">
          <mxGeometry relative="1" as="geometry">
            <Array as="points">
              <mxPoint x="690" y="760" />
              <mxPoint x="96" y="760" />
            </Array>
          </mxGeometry>
        </mxCell>
        <mxCell id="-Hr7FnxDlD46efR41cjD-22" value="Save Preset" style="rounded=1;html=1;shadow=0;dashed=0;whiteSpace=wrap;fontSize=10;fillColor=#666666;align=center;strokeColor=#4D4D4D;fontColor=#ffffff;" vertex="1" parent="1">
          <mxGeometry x="637.25" y="670" width="105.5" height="16.88" as="geometry" />
        </mxCell>
        <mxCell id="-Hr7FnxDlD46efR41cjD-23" value="FoodViaVoice -&amp;nbsp; Save Meal Preset" style="whiteSpace=wrap;html=1;shadow=0;dashed=0;fontSize=10;align=left;fillColor=#1A1A1A;strokeColor=#1A1A1A;fontColor=#FFFFFF;" vertex="1" parent="1">
          <mxGeometry x="600" y="530" width="180" height="16.88" as="geometry" />
        </mxCell>
        <mxCell id="-Hr7FnxDlD46efR41cjD-25" value="" style="strokeWidth=1;html=1;shadow=0;dashed=0;shape=transparent;strokeColor=#33b5e5" vertex="1" parent="1">
          <mxGeometry x="385" y="560" width="165" height="90" as="geometry" />
        </mxCell>
        <mxCell id="-Hr7FnxDlD46efR41cjD-26" value="Tomato" style="strokeColor=inherit;fillColor=inherit;gradientColor=inherit;shape=transparent;html=1;align=left;spacingLeft=10;fontSize=8;fontColor=#33b5e5;" vertex="1" parent="-Hr7FnxDlD46efR41cjD-25">
          <mxGeometry width="165" height="22.5" as="geometry" />
        </mxCell>
        <mxCell id="-Hr7FnxDlD46efR41cjD-27" value="" style="strokeColor=inherit;fillColor=inherit;gradientColor=inherit;shape=transparent;" vertex="1" parent="-Hr7FnxDlD46efR41cjD-26">
          <mxGeometry y="10.8" as="geometry" />
        </mxCell>
        <mxCell id="-Hr7FnxDlD46efR41cjD-28" value="" style="strokeColor=inherit;fillColor=inherit;gradientColor=inherit;strokeWidth=1;html=1;shadow=0;dashed=0;shape=mxgraph.android.rrect;rSize=0;resizable=0;" vertex="1" parent="-Hr7FnxDlD46efR41cjD-27">
          <mxGeometry x="2.5" y="-2.5" width="5" height="5" as="geometry" />
        </mxCell>
        <mxCell id="-Hr7FnxDlD46efR41cjD-29" value="Rice" style="strokeColor=inherit;fillColor=inherit;gradientColor=inherit;shape=transparent;html=1;align=left;spacingLeft=10;fontSize=8;fontColor=#33b5e5;" vertex="1" parent="-Hr7FnxDlD46efR41cjD-25">
          <mxGeometry y="22.5" width="165" height="22.5" as="geometry" />
        </mxCell>
        <mxCell id="-Hr7FnxDlD46efR41cjD-30" value="" style="strokeColor=inherit;fillColor=inherit;gradientColor=inherit;shape=transparent;" vertex="1" parent="-Hr7FnxDlD46efR41cjD-29">
          <mxGeometry y="10.8" as="geometry" />
        </mxCell>
        <mxCell id="-Hr7FnxDlD46efR41cjD-31" value="" style="strokeColor=inherit;fillColor=inherit;gradientColor=inherit;strokeWidth=1;html=1;shadow=0;dashed=0;shape=mxgraph.android.rrect;rSize=0;resizable=0;" vertex="1" parent="-Hr7FnxDlD46efR41cjD-30">
          <mxGeometry x="2.5" y="-2.5" width="5" height="5" as="geometry" />
        </mxCell>
        <mxCell id="-Hr7FnxDlD46efR41cjD-32" value="Mustard" style="strokeColor=inherit;fillColor=inherit;gradientColor=inherit;shape=transparent;html=1;align=left;spacingLeft=10;fontSize=8;fontColor=#33b5e5;" vertex="1" parent="-Hr7FnxDlD46efR41cjD-25">
          <mxGeometry y="45" width="165" height="22.5" as="geometry" />
        </mxCell>
        <mxCell id="-Hr7FnxDlD46efR41cjD-33" value="" style="strokeColor=inherit;fillColor=inherit;gradientColor=inherit;shape=transparent;" vertex="1" parent="-Hr7FnxDlD46efR41cjD-32">
          <mxGeometry y="10.8" as="geometry" />
        </mxCell>
        <mxCell id="-Hr7FnxDlD46efR41cjD-34" value="" style="strokeColor=inherit;fillColor=inherit;gradientColor=inherit;strokeWidth=1;html=1;shadow=0;dashed=0;shape=mxgraph.android.checkbox;rSize=0;resizable=0;" vertex="1" parent="-Hr7FnxDlD46efR41cjD-33">
          <mxGeometry x="2.5" y="-2.5" width="5" height="5" as="geometry" />
        </mxCell>
        <mxCell id="-Hr7FnxDlD46efR41cjD-35" value="Salt" style="strokeColor=inherit;fillColor=inherit;gradientColor=inherit;shape=transparent;html=1;align=left;spacingLeft=10;fontSize=8;fontColor=#33b5e5;" vertex="1" parent="-Hr7FnxDlD46efR41cjD-25">
          <mxGeometry y="67.5" width="165" height="22.5" as="geometry" />
        </mxCell>
        <mxCell id="-Hr7FnxDlD46efR41cjD-36" value="" style="strokeColor=inherit;fillColor=inherit;gradientColor=inherit;shape=transparent;" vertex="1" parent="-Hr7FnxDlD46efR41cjD-35">
          <mxGeometry y="10.8" as="geometry" />
        </mxCell>
        <mxCell id="-Hr7FnxDlD46efR41cjD-37" value="" style="strokeColor=inherit;fillColor=inherit;gradientColor=inherit;strokeWidth=1;html=1;shadow=0;dashed=0;shape=mxgraph.android.rrect;rSize=0;resizable=0;" vertex="1" parent="-Hr7FnxDlD46efR41cjD-36">
          <mxGeometry x="2.5" y="-2.5" width="5" height="5" as="geometry" />
        </mxCell>
        <mxCell id="-Hr7FnxDlD46efR41cjD-41" value="" style="strokeWidth=1;html=1;shadow=0;dashed=0;shape=transparent;strokeColor=#33b5e5" vertex="1" parent="1">
          <mxGeometry x="610" y="560" width="165" height="90" as="geometry" />
        </mxCell>
        <mxCell id="-Hr7FnxDlD46efR41cjD-42" value="Tomato" style="strokeColor=inherit;fillColor=inherit;gradientColor=inherit;shape=transparent;html=1;align=left;spacingLeft=10;fontSize=8;fontColor=#33b5e5;" vertex="1" parent="-Hr7FnxDlD46efR41cjD-41">
          <mxGeometry width="165" height="22.5" as="geometry" />
        </mxCell>
        <mxCell id="-Hr7FnxDlD46efR41cjD-43" value="" style="strokeColor=inherit;fillColor=inherit;gradientColor=inherit;shape=transparent;" vertex="1" parent="-Hr7FnxDlD46efR41cjD-42">
          <mxGeometry y="10.8" as="geometry" />
        </mxCell>
        <mxCell id="-Hr7FnxDlD46efR41cjD-44" value="" style="strokeColor=inherit;fillColor=inherit;gradientColor=inherit;strokeWidth=1;html=1;shadow=0;dashed=0;shape=mxgraph.android.rrect;rSize=0;resizable=0;" vertex="1" parent="-Hr7FnxDlD46efR41cjD-43">
          <mxGeometry x="2.5" y="-2.5" width="5" height="5" as="geometry" />
        </mxCell>
        <mxCell id="-Hr7FnxDlD46efR41cjD-45" value="Rice" style="strokeColor=inherit;fillColor=inherit;gradientColor=inherit;shape=transparent;html=1;align=left;spacingLeft=10;fontSize=8;fontColor=#33b5e5;" vertex="1" parent="-Hr7FnxDlD46efR41cjD-41">
          <mxGeometry y="22.5" width="165" height="22.5" as="geometry" />
        </mxCell>
        <mxCell id="-Hr7FnxDlD46efR41cjD-46" value="" style="strokeColor=inherit;fillColor=inherit;gradientColor=inherit;shape=transparent;" vertex="1" parent="-Hr7FnxDlD46efR41cjD-45">
          <mxGeometry y="10.8" as="geometry" />
        </mxCell>
        <mxCell id="-Hr7FnxDlD46efR41cjD-47" value="" style="strokeColor=inherit;fillColor=inherit;gradientColor=inherit;strokeWidth=1;html=1;shadow=0;dashed=0;shape=mxgraph.android.rrect;rSize=0;resizable=0;" vertex="1" parent="-Hr7FnxDlD46efR41cjD-46">
          <mxGeometry x="2.5" y="-2.5" width="5" height="5" as="geometry" />
        </mxCell>
        <mxCell id="-Hr7FnxDlD46efR41cjD-48" value="Mustard" style="strokeColor=inherit;fillColor=inherit;gradientColor=inherit;shape=transparent;html=1;align=left;spacingLeft=10;fontSize=8;fontColor=#33b5e5;" vertex="1" parent="-Hr7FnxDlD46efR41cjD-41">
          <mxGeometry y="45" width="165" height="22.5" as="geometry" />
        </mxCell>
        <mxCell id="-Hr7FnxDlD46efR41cjD-49" value="" style="strokeColor=inherit;fillColor=inherit;gradientColor=inherit;shape=transparent;" vertex="1" parent="-Hr7FnxDlD46efR41cjD-48">
          <mxGeometry y="10.8" as="geometry" />
        </mxCell>
        <mxCell id="-Hr7FnxDlD46efR41cjD-50" value="" style="strokeColor=inherit;fillColor=inherit;gradientColor=inherit;strokeWidth=1;html=1;shadow=0;dashed=0;shape=mxgraph.android.checkbox;rSize=0;resizable=0;" vertex="1" parent="-Hr7FnxDlD46efR41cjD-49">
          <mxGeometry x="2.5" y="-2.5" width="5" height="5" as="geometry" />
        </mxCell>
        <mxCell id="-Hr7FnxDlD46efR41cjD-51" value="Salt" style="strokeColor=inherit;fillColor=inherit;gradientColor=inherit;shape=transparent;html=1;align=left;spacingLeft=10;fontSize=8;fontColor=#33b5e5;" vertex="1" parent="-Hr7FnxDlD46efR41cjD-41">
          <mxGeometry y="67.5" width="165" height="22.5" as="geometry" />
        </mxCell>
        <mxCell id="-Hr7FnxDlD46efR41cjD-52" value="" style="strokeColor=inherit;fillColor=inherit;gradientColor=inherit;shape=transparent;" vertex="1" parent="-Hr7FnxDlD46efR41cjD-51">
          <mxGeometry y="10.8" as="geometry" />
        </mxCell>
        <mxCell id="-Hr7FnxDlD46efR41cjD-53" value="" style="strokeColor=inherit;fillColor=inherit;gradientColor=inherit;strokeWidth=1;html=1;shadow=0;dashed=0;shape=mxgraph.android.rrect;rSize=0;resizable=0;" vertex="1" parent="-Hr7FnxDlD46efR41cjD-52">
          <mxGeometry x="2.5" y="-2.5" width="5" height="5" as="geometry" />
        </mxCell>
        <mxCell id="-Hr7FnxDlD46efR41cjD-54" value="Speech&lt;br&gt;Recognition here" style="text;html=1;strokeColor=none;fillColor=none;align=center;verticalAlign=middle;whiteSpace=wrap;rounded=0;" vertex="1" parent="1">
          <mxGeometry x="230" y="90" width="70" height="30" as="geometry" />
        </mxCell>
        <mxCell id="-Hr7FnxDlD46efR41cjD-57" value="Fitbit api here" style="text;html=1;strokeColor=none;fillColor=none;align=center;verticalAlign=middle;whiteSpace=wrap;rounded=0;" vertex="1" parent="1">
          <mxGeometry x="150" y="720" width="60" height="30" as="geometry" />
        </mxCell>
        <mxCell id="-Hr7FnxDlD46efR41cjD-58" value="Chat GPT here" style="text;html=1;strokeColor=none;fillColor=none;align=center;verticalAlign=middle;whiteSpace=wrap;rounded=0;" vertex="1" parent="1">
          <mxGeometry x="610" y="390" width="60" height="30" as="geometry" />
        </mxCell>
      </root>
    </mxGraphModel>
  </diagram>
</mxfile>
